# xmcd
#
# Track frame offsets: 
#        150
#        22891
#        46476
#        65017
#        84387
#        103961
#        124539
#        138751
#        150810
#        173464
#        183641
#        197882
#        211961
#        236096
#        250899
#
# Disc length: 3595 seconds
#
# Revision: 0
# Processed by: cddbd v1.5.2PL0 Copyright (c) Steve Scherf et al.
# Submitted via: ExactAudioCopy v0.99pb5
#
DISCID=c40e090f
DTITLE=Supreeme - Supremacy
DYEAR=2006
DGENRE=Hip-Hop
TTITLE0=All Day (Intro) ft. Kate Earl
TTITLE1=Supernatural Powers
TTITLE2=U Feel Lucky
TTITLE3=Come At U
TTITLE4=Supply And Demand ft. J-Young and Murs
TTITLE5=Profit Margin
TTITLE6=Her Part
TTITLE7=U Can Say All U Want
TTITLE8=Bang Bang
TTITLE9=Wack Demo (Skit)
TTITLE10=Sleep
TTITLE11=War
TTITLE12=Winterfresh
TTITLE13=Spectacle
TTITLE14=Farewell Wenches (Outro)
EXTD=
EXTT0=
EXTT1=
EXTT2=
EXTT3=
EXTT4=
EXTT5=
EXTT6=
EXTT7=
EXTT8=
EXTT9=
EXTT10=
EXTT11=
EXTT12=
EXTT13=
EXTT14=
PLAYORDER=
